<svg width="2016" height="1413" viewBox="0 0 2016 1413" fill="none" xmlns="http://www.w3.org/2000/svg">
<g clip-path="url(#clip0_320_30)">
<path d="M-60 210L82 60" stroke="white" stroke-opacity="0.3" stroke-width="2"/>
<path d="M-4 322L138 172" stroke="white" stroke-opacity="0.3" stroke-width="2"/>
<path d="M-60 231L82 81" stroke="white" stroke-opacity="0.3" stroke-width="2"/>
<path d="M11.4922 219.503C12.9622 214.603 21.662 209.186 25.4806 206.074C32.6441 200.238 39.8771 194.562 46.9916 188.667C59.2955 178.472 71.2496 173.064 78.0769 157.892C80.6123 152.258 82.0596 146.286 83.3614 140.298C84.5605 134.782 87.9568 131.896 90.9462 127.491C99.0769 115.509 116.386 102.101 130.114 97.5247" stroke="white" stroke-opacity="0.3" stroke-width="2" stroke-linecap="round"/>
<path d="M67.4458 560.82C68.0088 555.189 71.0758 550.319 73.7872 545.464C79.0758 535.993 84.8018 526.776 90.6976 517.673C96.3778 508.904 103.839 500.053 107.732 490.318" stroke="white" stroke-opacity="0.3" stroke-width="2" stroke-linecap="round"/>
<path d="M92.0653 586.558C92.0653 580.994 91.4747 575.005 92.5626 569.524C96.2271 551.061 107.153 531.29 115.939 514.751C134.062 480.637 155.046 447.772 175.312 414.905C184.241 400.425 192.96 385.547 202.853 371.697" stroke="white" stroke-opacity="0.3" stroke-width="2" stroke-linecap="round"/>
<path d="M312.522 90.8102C327.52 77.9943 342.219 64.471 356.166 50.5237" stroke="white" stroke-opacity="0.3" stroke-width="2" stroke-linecap="round"/>
<path d="M333.784 113.192C352.893 94.0826 372.882 75.9426 391.665 56.4299C404.195 43.4133 416.144 29.7127 428.905 16.9516" stroke="white" stroke-opacity="0.3" stroke-width="2" stroke-linecap="round"/>
<path d="M413.239 369.459C435.84 346.857 458.847 324.345 483.616 304.055C494.824 294.874 507.553 286.03 517.126 275.022C519.072 272.783 521.98 270.405 522.907 267.623" stroke="white" stroke-opacity="0.3" stroke-width="2" stroke-linecap="round"/>
<path d="M1063.42 348.196C1063.42 339.101 1070.81 328.835 1075.23 321.463C1088.07 300.028 1104.3 280.851 1118.25 260.163C1128.94 244.312 1138.92 227.681 1150.46 212.416C1152.56 209.628 1155.19 207.155 1156.3 203.836" stroke="white" stroke-opacity="0.3" stroke-width="2" stroke-linecap="round"/>
<path d="M960.464 136.692C961.859 121.342 978.041 109.348 988.192 99.5141C998.78 89.2572 1011.1 80.2499 1024 73.1538C1040.07 64.3181 1056.4 59.5601 1074.36 56.3678C1082.19 54.9757 1087.93 56.8906 1092.45 63.393C1098.78 72.4956 1097.89 89.5179 1089.65 96.9651C1083.43 102.597 1073.84 105.358 1065.66 105.358C1058.04 105.358 1057.67 101.367 1052.23 98.6437" stroke="white" stroke-opacity="0.3" stroke-width="2" stroke-linecap="round"/>
<path d="M1296.18 1372.15C1302.72 1350.36 1319.29 1330.52 1331.62 1311.96C1332.9 1310.05 1357.01 1274.07 1357.73 1274.79" stroke="white" stroke-opacity="0.3" stroke-width="2" stroke-linecap="round"/>
<path d="M1354.38 1339.69C1362.06 1324.32 1372.1 1309.88 1380.99 1295.18C1387.66 1284.14 1394.42 1272.57 1402.5 1262.48" stroke="white" stroke-opacity="0.3" stroke-width="2" stroke-linecap="round"/>
<path d="M1394.66 1294.93C1395.11 1286.84 1401.8 1277.95 1404.73 1270.31" stroke="white" stroke-opacity="0.3" stroke-width="2" stroke-linecap="round"/>
<path d="M1825.5 1115.88C1863.15 1106.96 1902.01 1085.87 1919.51 1049.85C1926.47 1035.53 1925.1 1019.4 1925.1 1003.91C1925.1 976.524 1921.84 947.097 1927.9 920.166C1929.28 914.025 1930.79 909.592 1937.41 907.98C1942.96 906.631 1950.6 907.334 1955.25 910.591C1964.59 917.124 1966.51 934.004 1966.51 944.661" stroke="white" stroke-opacity="0.3" stroke-width="2" stroke-linecap="round"/>
<path d="M1936.29 1093.5C1936.29 1085.85 1936.41 1078.79 1938.53 1071.36C1940.26 1065.32 1944.13 1061.05 1946.36 1055.45" stroke="white" stroke-opacity="0.3" stroke-width="2" stroke-linecap="round"/>
<path d="M1960.91 676.084C1960.91 665.518 1956.63 642.563 1964.83 634.367C1968.32 630.874 1980.33 630.903 1984.66 631.57C1993.11 632.87 2000.49 638.532 2003.93 646.366C2008.7 657.208 2010.6 672.24 2002.69 682.177C1991.73 695.944 1976.71 709.592 1960.91 717.49" stroke="white" stroke-opacity="0.3" stroke-width="2" stroke-linecap="round"/>
<path d="M1849.01 573.129C1851 560.164 1865.24 546.542 1872.63 536.822C1880.11 526.988 1888.27 514.584 1898.24 507.104" stroke="white" stroke-opacity="0.3" stroke-width="2" stroke-linecap="round"/>
<path d="M1896.01 547.391C1896.48 541.206 1900.86 535.891 1904.71 531.351C1913.07 521.485 1922.92 512.66 1932.31 503.809C1939.04 497.472 1945.66 491.153 1952.89 485.407C1955.14 483.622 1957.1 481.146 1959.79 480.247" stroke="white" stroke-opacity="0.3" stroke-width="2" stroke-linecap="round"/>
<path d="M1650.93 387.364C1650.93 382.273 1656.6 377.01 1659.51 373.438C1683.53 343.988 1711.5 317.558 1739.83 292.367C1770.98 264.676 1803.72 238.868 1835.7 212.167C1844.12 205.14 1852 197.35 1861.32 191.527" stroke="white" stroke-opacity="0.3" stroke-width="2" stroke-linecap="round"/>
<path d="M1635.26 102.001C1638.06 96.9589 1642.34 92.3717 1645.96 87.8882C1654.11 77.7824 1659.98 65.182 1666.53 54.0053C1671.13 46.1613 1674.75 37.848 1679.28 30.0074C1680.6 27.7284 1681.15 26.2627 1681.15 23.666" stroke="white" stroke-opacity="0.3" stroke-width="2" stroke-linecap="round"/>
<path d="M1279.4 232.932C1279.68 229.721 1280.47 227.458 1281.76 224.29C1288.02 208.897 1295.59 193.925 1303.52 179.341C1319.93 149.173 1338.99 120.211 1358.98 92.3023C1366.63 81.6108 1374.19 70.4536 1383.22 60.844C1383.76 60.2698 1385.71 57.0156 1385.71 58.3572" stroke="white" stroke-opacity="0.3" stroke-width="2" stroke-linecap="round"/>
<path d="M1347.66 141.168C1363.64 125.192 1386.87 116.549 1409.21 116.549" stroke="white" stroke-opacity="0.3" stroke-width="2" stroke-linecap="round"/>
<path d="M1391.31 337.006C1393.38 336.746 1392.81 329.994 1393.11 328.426C1395.21 317.429 1401.27 308.443 1407.97 299.703C1414.77 290.823 1421.59 283.235 1430.47 276.576" stroke="white" stroke-opacity="0.3" stroke-width="2" stroke-linecap="round"/>
<path d="M1799.77 916.684C1799.77 905.623 1803.7 897.601 1809.15 887.899C1810.05 886.303 1818.26 874.21 1819.91 877.517" stroke="white" stroke-opacity="0.3" stroke-width="2" stroke-linecap="round"/>
<path d="M1494.26 1326.26C1494.26 1320.72 1497.01 1316.14 1499.73 1311.34C1511.86 1289.97 1531.03 1273.78 1550.84 1259.68C1562.07 1251.68 1575.96 1240.09 1589.38 1235.62" stroke="white" stroke-opacity="0.3" stroke-width="2" stroke-linecap="round"/>
<path d="M1559.17 1283.74C1559.17 1274.12 1589.42 1273.67 1596.1 1273.67" stroke="white" stroke-opacity="0.3" stroke-width="2" stroke-linecap="round"/>
<path d="M630.338 1360.95C627.536 1359.24 625.725 1356.54 623.499 1354.18C616.531 1346.77 608.874 1339.6 600.869 1333.35C565.412 1305.69 521.207 1297.2 478.269 1288.77C455.049 1284.22 432.649 1278.15 410.006 1271.49C401.217 1268.91 393.28 1266.95 384.143 1266.95" stroke="white" stroke-opacity="0.3" stroke-width="2" stroke-linecap="round"/>
<path d="M575.504 1265.83C575.249 1263.8 569.831 1263.54 568.23 1262.97C561.344 1260.53 554.973 1255.53 549.516 1250.79C538.527 1241.24 528.427 1231.59 518.991 1220.51C513.14 1213.64 501.437 1193.91 508.919 1184.76C513.985 1178.57 520.348 1173.9 515.074 1165.99C510.553 1159.21 480.961 1131.47 479.264 1138.26" stroke="white" stroke-opacity="0.3" stroke-width="2" stroke-linecap="round"/>
<path d="M710.911 1353.12C703.387 1353.12 697.338 1335.21 696.363 1329.12C695.646 1324.64 691.347 1318.16 687.411 1316.19" stroke="white" stroke-opacity="0.3" stroke-width="2" stroke-linecap="round"/>
<path d="M750.079 1376.62C750.079 1367.67 750.079 1358.72 750.079 1349.76C750.079 1342.92 748.672 1336.24 747.281 1329.56C746.591 1326.25 745.602 1316.17 745.602 1319.55" stroke="white" stroke-opacity="0.3" stroke-width="2" stroke-linecap="round"/>
<path d="M755.674 1353.12V1355.36" stroke="white" stroke-opacity="0.3" stroke-width="2" stroke-linecap="round"/>
<path d="M96.5415 1383.34C96.5415 1376.36 91.7161 1374.82 85.786 1371.52C76.068 1366.12 65.2874 1359.92 57.374 1352" stroke="white" stroke-opacity="0.3" stroke-width="2" stroke-linecap="round"/>
<path d="M102.137 1358.72C87.9084 1358.72 76.6179 1353.79 64.0886 1347.53" stroke="white" stroke-opacity="0.3" stroke-width="2" stroke-linecap="round"/>
<path d="M177.115 838.349V866.326" stroke="white" stroke-opacity="0.3" stroke-width="2" stroke-linecap="round"/>
<path d="M221.877 953.613C227.336 950.935 232.498 948.018 238.663 948.018" stroke="white" stroke-opacity="0.3" stroke-width="2" stroke-linecap="round"/>
<path d="M282.307 585.439C282.307 577.914 285.94 570.494 289.519 564.053C300.687 543.95 317.206 525.04 334.157 509.591C340.936 503.413 348.07 497.653 354.922 491.562C357.354 489.401 359.796 486.87 362.88 485.842" stroke="white" stroke-opacity="0.3" stroke-width="2" stroke-linecap="round"/>
<path d="M340.499 1091.26C340.499 1071.77 343.834 1056.82 353.43 1039.28C365.122 1017.92 378.322 1001.62 397.571 987.185" stroke="white" stroke-opacity="0.3" stroke-width="2" stroke-linecap="round"/>
<path d="M1367.45 870.831C1367.45 844.76 1393.73 815.418 1404.64 793.096C1441.02 718.629 1468.18 631.851 1468.68 548.269C1468.84 522.826 1461.96 499.901 1453.96 476.216C1450.93 467.222 1446.47 457.4 1446.47 447.807" stroke="white" stroke-opacity="0.3" stroke-width="2" stroke-linecap="round"/>
<path d="M3 801L163.5 643" stroke="white" stroke-opacity="0.3" stroke-width="2"/>
<path d="M1532.47 710.454C1532.47 670.691 1539.45 631.502 1539.45 591.914" stroke="white" stroke-opacity="0.3" stroke-width="2" stroke-linecap="round"/>
<path d="M1395.34 1128.83C1395.34 1085.68 1431.58 1054.17 1455.77 1021.91" stroke="white" stroke-opacity="0.3" stroke-width="2" stroke-linecap="round"/>
<path d="M1458.1 1070.72C1464.42 1058.71 1475.99 1045.76 1488.31 1039.6C1494.41 1036.55 1502.63 1038.06 1509.23 1035.86" stroke="white" stroke-opacity="0.3" stroke-width="2" stroke-linecap="round"/>
<path d="M1843.93 82.8917C1835.62 92.2431 1855.72 88.7883 1848.58 85.216" stroke="white" stroke-opacity="0.3" stroke-width="19" stroke-linecap="round"/>
<path d="M1585.93 229.323C1589.06 218.889 1613.3 209.155 1621.31 204.014C1634.73 195.404 1648.76 188.221 1662.63 180.512" stroke="white" stroke-opacity="0.3" stroke-width="2" stroke-linecap="round"/>
<path d="M1 1191.5L170.5 1033.5" stroke="white" stroke-opacity="0.3" stroke-width="2"/>
<path d="M3 1261.5L59.8628 1248.46C88.5711 1241.88 112.465 1222.09 124.275 1195.11L163.5 1105.5" stroke="white" stroke-opacity="0.3" stroke-width="2"/>
<path d="M1667.5 129.5L1748.5 57.5" stroke="white" stroke-opacity="0.3" stroke-width="2"/>
<path d="M1790.5 80.5L1611.5 238.5" stroke="white" stroke-opacity="0.3" stroke-width="2"/>
<path d="M2011.5 185L1816 389.5" stroke="white" stroke-opacity="0.3" stroke-width="2"/>
<path d="M2016 257L1913.5 373.5" stroke="white" stroke-opacity="0.3" stroke-width="2"/>
<path d="M1869.5 1319.5L2016 1126.5" stroke="white" stroke-opacity="0.3" stroke-width="2"/>
<path d="M1879 1377.5L2011.5 1198.5" stroke="white" stroke-opacity="0.3" stroke-width="2"/>
<path d="M605 164L844.5 4" stroke="white" stroke-opacity="0.3" stroke-width="2"/>
<path d="M700.5 131.5L830.5 41" stroke="white" stroke-opacity="0.3" stroke-width="2"/>
<path d="M682 248L1028 -3" stroke="white" stroke-opacity="0.3" stroke-width="2"/>
<path d="M1741.5 1324L1786 1268.5" stroke="white" stroke-opacity="0.3" stroke-width="2"/>
<path d="M1802 1308L1760.5 1361.5" stroke="white" stroke-opacity="0.3" stroke-width="2"/>
</g>
<defs>
<clipPath id="clip0_320_30">
<rect width="2016" height="1413" fill="white"/>
</clipPath>
</defs>
</svg>
