<svg width="1045" height="1993" viewBox="0 0 1045 1993" fill="none" xmlns="http://www.w3.org/2000/svg">
<g clip-path="url(#clip0_350_11)">
<g filter="url(#filter0_b_350_11)">
<path d="M222 305C66.4 305 7.66667 219.5 -6 170V1105.5V1992.5L96.5 1959.5L222 1904.5C403.5 1793 389.5 1660.5 246.5 1534.5C186.716 1481.82 700.5 1307 634 1076.5C567.5 846 368.833 919.833 222 867C141.833 839.667 159.32 716.677 299 570.5C449.5 413 319 305 222 305Z" fill="url(#paint0_linear_350_11)"/>
</g>
<path d="M16.5 -4.5C97.8333 90.8333 270.3 224.3 309.5 -4.5H16.5Z" fill="url(#paint1_linear_350_11)"/>
</g>
<defs>
<filter id="filter0_b_350_11" x="-10" y="166" width="653.954" height="1830.5" filterUnits="userSpaceOnUse" color-interpolation-filters="sRGB">
<feFlood flood-opacity="0" result="BackgroundImageFix"/>
<feGaussianBlur in="BackgroundImageFix" stdDeviation="2"/>
<feComposite in2="SourceAlpha" operator="in" result="effect1_backgroundBlur_350_11"/>
<feBlend mode="normal" in="SourceGraphic" in2="effect1_backgroundBlur_350_11" result="shape"/>
</filter>
<linearGradient id="paint0_linear_350_11" x1="281.06" y1="72.5" x2="281.06" y2="1992.5" gradientUnits="userSpaceOnUse">
<stop stop-color="#FDD998" stop-opacity="0.65"/>
<stop offset="1" stop-color="#FDAA75" stop-opacity="0.62"/>
</linearGradient>
<linearGradient id="paint1_linear_350_11" x1="163" y1="-4.5" x2="163" y2="121.832" gradientUnits="userSpaceOnUse">
<stop stop-color="#F5A26A" stop-opacity="0.6"/>
<stop offset="1" stop-color="#F5A26A" stop-opacity="0.71"/>
</linearGradient>
<clipPath id="clip0_350_11">
<rect width="1045" height="1993" fill="white"/>
</clipPath>
</defs>
</svg>
