<svg width="192" height="165" viewBox="0 0 192 165" fill="none" xmlns="http://www.w3.org/2000/svg">
<rect width="192" height="165" fill="white" fill-opacity="0.28"/>
<path d="M19.078 42.8397C19.078 60.525 19.078 78.2103 19.078 95.8956C19.078 102.345 18.9036 110.711 20.6581 116.852C21.7725 120.752 47.3195 123.165 51.0114 123.671C63.6536 125.404 77.6988 126.152 90.5122 125.085C105.041 123.874 120.296 120.677 135.003 120.677C136.639 120.677 143.944 121.724 144.815 119.762C149.211 109.872 145.744 95.5024 146.645 84.9185C148.064 68.2416 146.841 51.0004 143.235 34.7732C142.123 29.7653 121.588 32.3842 119.036 32.3616C103.592 32.2249 87.8183 31.5939 72.3834 30.7815C59.5806 30.1077 47.5083 30.8647 34.7121 30.8647C29.8838 30.8647 26.6828 32.0004 25.0655 36.8522" stroke="black" stroke-width="7" stroke-linecap="round"/>
<path d="M23.5693 105.708C24.3743 99.2689 36.9716 92.953 40.3676 87.7459C45.1238 80.453 50.8672 72.2976 52.0099 86.5816C52.3709 91.0934 60.4009 107.669 63.9849 101.218C69.1529 91.9155 74.7855 80.3815 81.2822 72.0287C83.0374 69.772 88.1466 58.1575 91.7603 59.4716C102.769 63.4748 112.075 80.243 118.455 89.0764C122.247 94.3275 131.57 79.4303 135.752 75.7709C138.818 73.0883 141.856 68.2865 146.313 68.2865" stroke="black" stroke-width="7" stroke-linecap="round"/>
<path d="M43.0288 53.3178C43.0288 56.2292 39.6457 58.9659 43.7772 60.8022C48.1079 62.7269 48.9584 62.1649 52.7585 60.0537C61.1179 55.4096 48.1025 51.8209 44.5256 51.8209" stroke="black" stroke-width="7" stroke-linecap="round"/>
<path d="M138 135.773C138 125.322 138.742 114.914 138.742 104.448C138.742 100.24 140.226 95.8263 140.226 92" stroke="#F8E7DF" stroke-width="12" stroke-linecap="round"/>
<path d="M150.612 113.71C138.706 113.71 126.419 110 115 110" stroke="#F8E7DF" stroke-width="12" stroke-linecap="round"/>
<path d="M161.516 116.193C154.251 116.193 147.676 111 140 111" stroke="#F8E7DF" stroke-width="12" stroke-linecap="round"/>
</svg>
